<svg class="logo" xmlns="http://www.w3.org/2000/svg" viewBox="0 0 632.487 516.387"><path d="M149.312 100.885c4.971 16.615 20.382 29.842 40.669 29.732 23.038-.126 41.694-18.315 41.694-42.037 0-.518-.013-1.035-.036-1.553-.357-7.775-3.315-15.643-6.456-20.661-6.878-10.982-20.22-20.771-37.937-19.479-12.966.944-21.419 5.564-28.023 12.646-.5.537-.996 1.104-1.484 1.701-7.322 8.946-12.979 24.432-8.427 39.651zm40.496-38.647c14.555 0 26.354 11.799 26.354 26.354s-11.799 26.354-26.354 26.354-26.354-11.8-26.354-26.354 11.8-26.354 26.354-26.354z"/><path d="M0 0l189.808 516.387L379.619 0H0zm288.066 102.036c-10.32 9.321-23.045 18.269-35.202 24.947-17.49 9.609-38.454 17.431-62.883 17.431-37.188 0-64.948-16.251-87.49-33.151-3.29-2.467-7.312-5.272-11.277-8.886-2.785-2.535-9.059-7.388-9.229-10.595-.184-3.458 4.995-7.439 8.544-10.596 16.926-15.046 36.311-27.519 59.466-35.543 9.792-3.393 19.85-5.952 31.783-6.835 27.727-2.05 50.626 6.055 68.695 15.723 11.309 6.053 26.425 16.234 37.25 25.974 3.002 2.701 9.912 7.396 9.912 10.938 0 3.313-6.591 7.903-9.569 10.593zm195.109 313.466c-4.972-16.615-20.382-29.842-40.669-29.732-23.038.126-41.694 18.315-41.694 42.037 0 .518.013 1.034.036 1.554.357 7.774 3.315 15.642 6.456 20.66 6.878 10.982 20.22 20.771 37.937 19.479 12.966-.944 21.418-5.564 28.023-12.646.5-.536.996-1.104 1.484-1.7 7.321-8.948 12.978-24.434 8.427-39.652zm-40.497 38.646c-14.556 0-26.354-11.8-26.354-26.354s11.8-26.354 26.354-26.354 26.354 11.8 26.354 26.354-11.799 26.354-26.354 26.354z"/><path d="M632.487 516.387L442.68 0 252.869 516.387h379.618zM344.421 414.35c10.319-9.32 23.045-18.269 35.203-24.946 17.488-9.61 38.452-17.432 62.882-17.432 37.188 0 64.948 16.251 87.49 33.151 3.289 2.467 7.312 5.272 11.276 8.886 2.785 2.535 9.06 7.388 9.229 10.595.184 3.458-4.995 7.439-8.544 10.596-16.927 15.046-36.312 27.519-59.467 35.543-9.793 3.393-19.85 5.953-31.782 6.835-27.728 2.05-50.627-6.055-68.694-15.723-11.309-6.053-26.426-16.234-37.25-25.974-3.002-2.701-9.912-7.395-9.912-10.938 0-3.312 6.592-7.903 9.569-10.593z"/></svg>