<svg id="Layer_1" data-name="Layer 1" xmlns="http://www.w3.org/2000/svg" viewBox="0 0 632.8 624.19"><defs><style>.cls-1{fill:#e0ddcf;}.cls-2{fill:none;stroke:#e0ddcf;stroke-width:2px;}</style></defs><title>newwebimagewhite</title><path class="cls-1" d="M99.83,300.09a71.57,71.57,0,0,0-20.14,8.63,136.56,136.56,0,0,0-16.38,12.47c-3.13,2.67-6.22,5.38-9.38,8-.57.48-.49.88.27,1a4.1,4.1,0,0,0,2.73-.74c10.21-8.52,19.92-18.08,32-23.91a59.14,59.14,0,0,1,11.24-4.05c.42-.11,1.92-.57,1.74-1.22s-1.76-.28-2.12-.19Z" transform="translate(-10.45 -23.14)"/><path class="cls-1" d="M52.93,329.68c-4.49,13.25-15.55,22.88-21.77,35.22a39.69,39.69,0,0,0-3.79,11.16c-.14.83,3.65.21,3.8-.7,2.44-14.12,13.23-24.45,20.55-36.14a49.37,49.37,0,0,0,5-10.24c.22-.66-3.48-.27-3.81.7Z" transform="translate(-10.45 -23.14)"/><path class="cls-1" d="M25.26,645.71c-6.75-15.68-8.32-33.18-9.47-50C14.51,576.89,14,558,14.42,539.13c.24-11.06,1.31-22.07,1.32-33.14,0-1.18-3.86-.46-3.86,1,0,5.05-.18,10.1-.43,15.13-.24,4.84-.68,9.68-.82,14.52-.28,9.71-.22,19.42,0,29.13.41,17.76.95,35.66,3.52,53.27,1.37,9.44,3.45,18.88,7.23,27.67.58,1.33,4.38.15,3.87-1Z" transform="translate(-10.45 -23.14)"/><path class="cls-1" d="M16.37,506.38c1.14-17.76-2.33-35.77.93-53.4,3.23-17.38,3.56-35.27,8-52.43,2.35-9.12,3.29-18.65,6.43-27.56.76-2.15-3.11-2.23-3.71-.51-2.81,8-3.88,16.43-5.75,24.65-1,4.18-2.06,8.31-2.83,12.54-.81,4.4-1.43,8.84-2,13.28-1.11,8.86-2,17.75-3.39,26.56-.71,4.35-1.5,8.62-1.8,13s-.29,9-.19,13.52c.24,10.19,1,20.39.38,30.58-.13,2.08,3.81,1.59,3.93-.25Z" transform="translate(-10.45 -23.14)"/><path class="cls-1" d="M100.85,301.82c13.53-7.73,26.92-15.83,38.63-26.2,9.68-8.57,19.09-18.79,20.56-32.19.78-7-.32-14.14-1.6-21-.31-1.64-4.19-.67-3.87,1,1.13,6,2.11,12.2,1.74,18.36a34.54,34.54,0,0,1-4.52,15.27c-3.44,6-8.39,11-13.43,15.71a148.37,148.37,0,0,1-17.42,13.66c-7,4.78-14.36,9.11-21.75,13.33-.62.36-1.51,1.06-1,1.86s2,.57,2.61.2Z" transform="translate(-10.45 -23.14)"/><path class="cls-1" d="M157.84,223c1.54-24,1.83-48,3.33-71.92.75-12,1.81-24,3.5-35.94a188.59,188.59,0,0,1,4.52-23.2c4-14.77,10.31-29.44,20.39-41.13a59.64,59.64,0,0,1,17.06-13.94,53.51,53.51,0,0,1,22.44-6c21.7-1.14,42.21,8.66,61.35,17.62,2.32,1.09,4.63,2.17,6.95,3.23a3.42,3.42,0,0,0,2.49-.19c.16-.06,1.78-.85,1.14-1.14-19.63-9-39.54-19.59-61.5-21.08-17.37-1.17-34.57,3.94-47.57,15.69C180.2,55.64,172.59,70.2,167.65,85c-6,18-8,37.21-9.56,56.05-2,24.56-2.28,49.2-3.58,73.8-.16,3-.34,6.09-.53,9.13,0,.61,3.79.15,3.86-1Z" transform="translate(-10.45 -23.14)"/><path class="cls-1" d="M399.11,162.2a112.89,112.89,0,0,1-23.27-20.46,206.64,206.64,0,0,1-17.61-24.06c-10.82-16.77-20.74-34.44-34.67-48.92-7.2-7.48-15.1-17.14-26.09-18.48a4.4,4.4,0,0,0-2.73.73c-.62.44-.52.79.23.88,4.77.58,9,3.33,12.7,6.27a114.45,114.45,0,0,1,10.81,10.43,181.07,181.07,0,0,1,18.63,23.23c11.06,16.24,20.42,33.69,33,48.84a114.58,114.58,0,0,0,25.33,22.86c.64.43,1.84,0,2.49-.2.21-.08,1.73-.74,1.14-1.12Z" transform="translate(-10.45 -23.14)"/><path class="cls-1" d="M395.36,164a51.82,51.82,0,0,1,6.56,21.21,53.75,53.75,0,0,1-2.69,20.29c-4.44,13.74-12.87,25.86-21.27,37.44-4.72,6.51-9.58,12.93-14.08,19.6-.36.54,1.4.31,1.53.29a3.71,3.71,0,0,0,2.27-1c8.14-12.05,17.4-23.32,25.05-35.71,7.27-11.76,13.34-25,13.17-39.1a51.17,51.17,0,0,0-6.67-24c-.49-.88-4.13.56-3.87,1Z" transform="translate(-10.45 -23.14)"/><path class="cls-1" d="M363.49,264.08A197.56,197.56,0,0,0,390.68,274c4.59,1.32,9.21,2.53,13.85,3.67,4.26,1.05,8.56,1.94,12.79,3.16A114.87,114.87,0,0,1,439,289.5c3.56,1.88,7,3.93,10.44,6.08a92.58,92.58,0,0,1,10.36,7.21c7,5.9,13.06,13,21.37,17.18,1.64.83,4.41-1.56,2.21-2.68-7.27-3.69-12.8-9.9-18.83-15.24s-13.38-9.78-20.55-13.73A119.82,119.82,0,0,0,422.59,279c-8.56-2.71-17.42-4.35-26.07-6.73a205.83,205.83,0,0,1-30.82-10.9c-1.67-.76-4.46,1.64-2.21,2.67Z" transform="translate(-10.45 -23.14)"/><path class="cls-1" d="M478.36,319.43c5.05,2.23,9.21,6.31,12.81,10.39a141.17,141.17,0,0,1,11.52,15.45c3.16,4.76,6.16,9.64,9.41,14.34a136.12,136.12,0,0,1,11.25,19.05,233.73,233.73,0,0,1,9.35,23.73c.35,1,4.18-.12,3.87-1-5-14.46-10.65-28.76-19.57-41.31-7.09-10-13-20.73-20.93-30.11-4.06-4.82-8.71-9.51-14.56-12.09a3.66,3.66,0,0,0-2.71.46c-.46.24-1.22.78-.44,1.13Z" transform="translate(-10.45 -23.14)"/><path class="cls-1" d="M537.18,401.1c1.53-8.6,2.48-17.36,5-25.75,2.1-7,5.73-14.16,12.53-17.62,4.59-2.34,9.83-2.89,14.91-2.71a2.7,2.7,0,0,0,2.53-1.14c.39-.82-.34-1.46-1.14-1.48-9.58-.35-19.52,1.87-25.89,9.56-5.51,6.62-7.61,15.4-9.16,23.68-1,5.25-1.73,10.55-2.67,15.81-.32,1.8,3.61,1.26,3.9-.35Z" transform="translate(-10.45 -23.14)"/><path class="cls-1" d="M560.35,353.19c-3.5-5.07-5.47-11.38-4.05-17.52a20,20,0,0,1,10.94-13.27c.46-.22,1.18-.58.5-.92s-2.13.24-2.7.51c-5.78,2.8-10.68,7.43-12.39,13.79s.11,13.06,3.83,18.45c.62.89,4.12-.67,3.87-1Z" transform="translate(-10.45 -23.14)"/><path class="cls-1" d="M352.85,258.06c-.61-15-.59-30.09-1.08-45.13a361.26,361.26,0,0,0-4-44.55c-2.2-14-8.11-27.22-12.82-40.54A220.61,220.61,0,0,1,329,106.56c-.89-3.6-1.79-7.21-2.8-10.78a68.87,68.87,0,0,0-3.41-10.19c-5.3-11.38-9.09-24.79-19.43-32.8-.88-.68-4.31.83-3.63,1.35,9.33,7.24,13.28,19.07,17.85,29.5a91.42,91.42,0,0,1,3.52,9.07c1.1,3.47,2.05,7,2.95,10.52,1.79,7,3.36,14.15,5.51,21.11,4.21,13.61,10.48,26.56,13.48,40.54a201,201,0,0,1,3.12,21.58c.76,7.37,1.22,14.77,1.52,22.17.7,16.82.6,33.65,1.28,50.47,0,.78,3.91.13,3.86-1Z" transform="translate(-10.45 -23.14)"/><path class="cls-1" d="M130.75,286.69c30.91-1.74,61.7-5,92.43-8.67s61.55-7.71,92.4-11c4-.43,8-.79,12-1.48,3.74-.66,7.46-1.47,11.19-2.2,7.26-1.44,14.94-2.76,22.29-1.14a2.81,2.81,0,0,0,2.73-.74,1,1,0,0,0-.48-1.77c-13.61-3-26.92,2.31-40.33,3.89-15.47,1.82-31,3.38-46.42,5.25-30.92,3.73-61.82,7.76-92.81,10.89-17.52,1.77-35.07,3.26-52.65,4.25-.81,0-2,.59-2.14,1.51s1,1.23,1.76,1.19Z" transform="translate(-10.45 -23.14)"/><path class="cls-1" d="M562.89,325.76c7.11-2.13,14.24-4.2,21.49-5.81,8.3-1.83,17.12-3.45,25.64-2.49,3.41.38,7.11,1.29,9.64,3.77,1.13,1.11,4.79-.41,3.56-1.63-5.59-5.48-15-5.31-22.22-4.76-9.36.72-18.62,2.86-27.66,5.33-3.71,1-7.4,2.12-11.08,3.22-.69.21-1.84.8-1.61,1.7s1.6.86,2.24.67Z" transform="translate(-10.45 -23.14)"/><path class="cls-1" d="M563.94,323.84c.54-6.34,2-12.59,2.33-18.94a35.34,35.34,0,0,0-3.71-18c-.77-1.55-4.44-.13-3.53,1.71a33.15,33.15,0,0,1,3.27,17.33c-.44,6.11-1.75,12.12-2.28,18.22-.17,2,3.77,1.49,3.92-.28Z" transform="translate(-10.45 -23.14)"/><path class="cls-1" d="M563.51,287.18a99.35,99.35,0,0,1,17.63-3,103.73,103.73,0,0,1,19.7,0c9.54,1,23.21,3.87,26,14.66,1.85,7.2-1.81,14.8-5.45,20.81-.5.82.45,1.43,1.16,1.52a2.64,2.64,0,0,0,2.52-1.15c3.62-6,6.9-13.09,6-20.27-.65-5.24-4-9.47-8.37-12.23-5.2-3.28-11.41-4.8-17.44-5.66a101.67,101.67,0,0,0-21.07-.58,109.24,109.24,0,0,0-21.34,3.41c-.74.2-1.83.86-1.6,1.77s1.58.92,2.27.73Z" transform="translate(-10.45 -23.14)"/><path class="cls-1" d="M624.21,291.15c5-5,7.8-11.77,9.88-18.42a184.19,184.19,0,0,0,5-22.18c1.1-6.07,2.52-12.1,3.41-18.21.84-5.74,1.32-11.94-.39-17.58-2-6.7-7.41-10.76-14.16-12.07a3,3,0,0,0-2.73.73c-.52.59-.45,1.48.44,1.66,5.6,1.09,10.22,4.15,12.23,9.65,1.93,5.26,1.62,11.11.92,16.57-.76,5.85-2.15,11.59-3.21,17.38-1.29,7.1-2.52,14.22-4.44,21.19-2,7.24-4.72,14.9-10.1,20.36a.94.94,0,0,0,.44,1.65,2.89,2.89,0,0,0,2.73-.73Z" transform="translate(-10.45 -23.14)"/><path class="cls-1" d="M624,213.1a15.1,15.1,0,0,0,1.52-12.5,10.39,10.39,0,0,0-8.57-7.28,17.14,17.14,0,0,0-9.1,1.86c-.49.23-1.17.86-.42,1.21a3.83,3.83,0,0,0,2.72-.44,11.81,11.81,0,0,1,1.39-.55,7.2,7.2,0,0,1,1.12-.25,6.87,6.87,0,0,1,2.3,0,8,8,0,0,1,4.19,2.29,12.53,12.53,0,0,1,3.17,9.86,14.9,14.9,0,0,1-2.15,6.37c-.42.68,1.37.59,1.59.56A3.17,3.17,0,0,0,624,213.1Z" transform="translate(-10.45 -23.14)"/><path class="cls-1" d="M612.08,208.43c.62-4.7.47-9.8-1.62-14.14a13.82,13.82,0,0,0-9.67-7.75,22.94,22.94,0,0,0-9.37.22c-.64.13-1.84.76-1.64,1.59s1.63.67,2.22.55c3.85-.78,8.1-.45,11.25,2.12s4.49,6.27,5,10a29,29,0,0,1-.07,7.78c-.22,1.66,3.69,1,3.88-.42Z" transform="translate(-10.45 -23.14)"/><path class="cls-1" d="M591.88,187.66c1.81-6.3,4-12.47,5.24-18.92a43.48,43.48,0,0,0,1-10.91c-.17-2.85-.8-6-2.81-8.13-4-4.32-10.95-3.75-14.78.39-4,4.36-5.53,10.91-7,16.49-.88,3.46-1.65,6.95-2.62,10.39a36.71,36.71,0,0,1-1.31,4,16.35,16.35,0,0,1-.75,1.65c-.14.26-.29.51-.44.76l-.15.23c.21-.31-.12.13-.16.18-1.52,1.87,2.16,2.3,3.2,1a17.6,17.6,0,0,0,2.85-6c.88-2.71,1.54-5.49,2.22-8.26,1.39-5.7,2.6-11.77,5.53-16.92a12.84,12.84,0,0,1,2-2.72,5,5,0,0,1,2.08-1.41c-.44.18.19,0,.35-.07s.48-.08,0,0l.33,0a5,5,0,0,1,1.43.08,7.55,7.55,0,0,1,3,1.36c2,1.62,2.72,4.37,3,6.84a35.59,35.59,0,0,1-.63,9.87c-1.21,7-3.57,13.66-5.53,20.47-.26.93,1.15,1.21,1.76,1.16a2.33,2.33,0,0,0,2.15-1.5Z" transform="translate(-10.45 -23.14)"/><path class="cls-1" d="M562.13,287.79a45.85,45.85,0,0,0-3.66-9,60.57,60.57,0,0,1-3.6-7.65A19.27,19.27,0,0,1,554,262c.53-3.83,1.91-7.56,2.89-11.29A67.54,67.54,0,0,0,559,239.45c.36-4,.13-8,.93-12,.69-3.42,1.84-6.72,2.85-10.05a77,77,0,0,0,2.43-10.83c1-7.13,1.09-15.54,6.14-21.23a1,1,0,0,0-.46-1.71,2.79,2.79,0,0,0-2.73.73c-4.66,5.25-5.55,12.4-6.39,19.09a88.69,88.69,0,0,1-1.83,10.48c-.9,3.6-2.16,7.1-3.14,10.68a46.86,46.86,0,0,0-1.5,11.55,57.78,57.78,0,0,1-1.56,11.92c-1.63,7-5,14.18-3.41,21.52a36.75,36.75,0,0,0,3.73,9.07,51,51,0,0,1,4.25,10.15c.44,1.64,4.31.61,3.86-1Z" transform="translate(-10.45 -23.14)"/><path class="cls-1" d="M620.72,321.33c-1,4.16.46,8.45,2.28,12.16a49.33,49.33,0,0,0,7.32,10.79c.67.75,4.3-.6,3.64-1.35a47.35,47.35,0,0,1-7.1-10.47c-1.74-3.55-3.26-7.79-2.32-11.78.21-.93-3.58-.37-3.82.65Z" transform="translate(-10.45 -23.14)"/><path class="cls-1" d="M629.6,343.81c-1.6,27.58-3.18,55.18-6.38,82.63-1.58,13.64-3.43,27.31-6.17,40.77a168.13,168.13,0,0,1-7.88,27.13c-6.27,16.17-15.76,31.95-29.86,42.45a62.37,62.37,0,0,1-22.68,10.66c-9.65,2.31-19.61,2.13-29.39.78-24.82-3.43-47.31-15.63-68.71-28l-8-4.64a2.83,2.83,0,0,0-2.75.32c-.58.39-1.1,1.21-.29,1.69,21.88,12.72,44.22,26,69.22,31.42,10.71,2.34,21.91,3.42,32.83,2a69.46,69.46,0,0,0,26-8.78c15.46-9,26.51-23.94,33.93-39.95,9.43-20.32,13.16-42.4,16.13-64.44,3.77-28,5.62-56.14,7.27-84.3l.6-10.19c.1-1.73-3.8-1-3.89.42Z" transform="translate(-10.45 -23.14)"/><path class="cls-1" d="M474.74,630.54a46.6,46.6,0,0,0-4.2-21.4c-2.86-6.57-6.57-12.73-9.49-19.28-1.61-3.62-2.78-7.36-4.11-11.08-1.43-4-3-8-4.49-11.95-3-8-5.73-16.08-6.6-24.57s0-18,5.57-25c.6-.75-.51-1.2-1.07-1.24a3.09,3.09,0,0,0-2.55,1.08c-5,6.2-6,13.74-6.07,21.47,0,8.52,2.44,17,5.27,24.93,1.45,4.08,3,8.11,4.56,12.16,1.43,3.8,2.61,7.7,4.08,11.49,2.65,6.88,6.42,13.22,9.6,19.85,3.61,7.55,6.11,15.5,5.62,24-.09,1.67,3.8.94,3.88-.45Z" transform="translate(-10.45 -23.14)"/><path class="cls-1" d="M393.49,636.93a103.31,103.31,0,0,1,12.2,0c6.29.16,12.57.37,18.85.49,6.85.12,13.7.15,20.54-.13a102.08,102.08,0,0,0,17.53-1.89,30.34,30.34,0,0,0,7.49-2.47,8.22,8.22,0,0,0,4-3.64c.3-.67-1.31-.47-1.56-.43-.63.1-1.95.39-2.25,1.08a3.81,3.81,0,0,1-1,1.4,7.71,7.71,0,0,1-1.44,1l-.51.25c-.11.05-.61.27-.24.12-.47.19-1,.36-1.43.52l-.14,0-.24.08-.69.19c-.54.15-1.08.28-1.63.4l-.54.12-.9.17c-.62.11-1.25.22-1.88.31-1.27.2-2.43.34-3.7.47-3,.31-6,.5-8.95.63-12.63.53-25.28,0-37.91-.34a117.87,117.87,0,0,0-13.94,0c-.75.07-2.11.26-2.58.94s.4.74.92.69Z" transform="translate(-10.45 -23.14)"/><path class="cls-1" d="M138.82,642.14c-5.57-10.74-6.29-23.39-12.43-33.89a25.83,25.83,0,0,0-6.14-7.34c-1-.79-3.18,0-3.72,1a14.88,14.88,0,0,0-1.59,9c.37,3.06,1.31,6,1.58,9.11.63,7.17-1.73,14.24-1.78,21.4,0,1,3.85.35,3.86-1,.05-7,2.29-13.88,1.82-20.93-.2-3-1.06-5.87-1.52-8.82a14.38,14.38,0,0,1,1.48-9.24l-3.73,1c4.54,3.64,7.24,8.84,9.25,14.2,2.14,5.72,3.55,11.69,5.41,17.5a58.27,58.27,0,0,0,3.64,9.11c.63,1.21,4.36-.08,3.87-1Z" transform="translate(-10.45 -23.14)"/><path class="cls-1" d="M618.61,418.28A85.69,85.69,0,0,0,617,397c-1.43-6.76-3.82-13.49-8-19-.8-1.07-4.53.26-3.59,1.52,4.09,5.4,6.36,12,7.74,18.56a83.06,83.06,0,0,1,1.64,20.75c-.07,1.6,3.81.84,3.86-.47Z" transform="translate(-10.45 -23.14)"/><path class="cls-1" d="M613.26,399.56c-1-8.26-4.17-16.14-7.86-23.56A239,239,0,0,0,592,353.24c-2.44-3.78-4.91-7.54-7.31-11.35-.71-1.12-4.35.27-3.86,1,9.07,14.38,19.3,28.41,25.2,44.49a60.12,60.12,0,0,1,3.34,13.18c.13,1,4,.23,3.86-1Z" transform="translate(-10.45 -23.14)"/><path class="cls-1" d="M597.8,434.05c-6.52-16.9-19.26-31.27-33.69-42a100.59,100.59,0,0,0-12.52-7.94,2.67,2.67,0,0,0-2.76.26c-.57.42-1.1,1.42-.24,1.88a104.8,104.8,0,0,1,38.72,35.76,74.28,74.28,0,0,1,6.63,13c.64,1.65,4.48.56,3.86-1Z" transform="translate(-10.45 -23.14)"/><path class="cls-1" d="M568.67,425.13c-7.24-11.44-17.31-25.59-32.17-26.36a5,5,0,0,0-2.73.73c-.61.38-.56.67.19.71,6.89.36,13,4.45,17.78,9.11,5.13,4.94,9.27,10.84,13.07,16.85.54.86,4.09-.67,3.86-1Z" transform="translate(-10.45 -23.14)"/><path class="cls-1" d="M515.77,439.73c-.07-14.17-6.49-27.6-11.85-40.42a141.16,141.16,0,0,1-7-19.83c-1.81-7.12-3.58-14.26-5.93-21.23a87.91,87.91,0,0,0-11-22.6c-.9-1.27-4.61.13-3.56,1.63,8.54,12.14,12.44,26.59,16,40.79.84,3.33,1.64,6.65,2.78,9.89s2.43,6.5,3.75,9.7c2.76,6.69,5.68,13.32,8.13,20.13,2.57,7.14,4.77,14.66,4.81,22.31,0,1.86,3.9,1.17,3.89-.37Z" transform="translate(-10.45 -23.14)"/><path class="cls-1" d="M431.33,473.29c-5.36-21.45-10.58-43-14.41-64.75-3.18-18.1-5-36.75-3.33-55.1.89-9.62,2.81-19.28,7-28.05.94-2-3-2-3.69-.44-7.73,16.36-8.45,35.53-7.48,53.29,1.05,19.42,4.76,38.55,8.92,57.51,2.83,12.91,6,25.75,9.18,38.57.44,1.78,4.31.76,3.86-1Z" transform="translate(-10.45 -23.14)"/><path class="cls-1" d="M345.57,340.25c4.51,8.06,6.72,17,8.58,26,.92,4.42,1.79,8.84,2.88,13.22,1.16,4.64,2.77,9.17,4.31,13.69,6.11,18,13.19,35.94,23.5,52,5.7,8.87,12.11,17.28,17.21,26.52.75,1.34,4.47,0,3.56-1.63-4.55-8.24-10.14-15.83-15.34-23.66a176.09,176.09,0,0,1-13.75-25.05c-3.95-8.74-7.35-17.71-10.49-26.77-1.56-4.52-3.25-9.07-4.5-13.69-1.19-4.39-2.11-8.84-3-13.29-2.05-10-4.33-19.93-9.37-28.93-.75-1.34-4.47,0-3.56,1.62Z" transform="translate(-10.45 -23.14)"/><path class="cls-1" d="M139.26,410.58c-6.15-8.13-9.29-18.12-12.38-27.7-1.62-5-3.38-10-5.28-14.93-2.11-5.48-4.14-11-5.85-16.6a114.93,114.93,0,0,1-4.28-19.56c-.19-1.5-4.07-.6-3.87,1,1.46,11.89,5.23,23.28,9.47,34.43,1.91,5,3.81,10,5.46,15.14s3.19,9.94,5.12,14.8a63.49,63.49,0,0,0,8,15c.91,1.19,4.63-.2,3.57-1.6Z" transform="translate(-10.45 -23.14)"/><path class="cls-1" d="M572,181.73c0-5.44-.13-11.9,4.12-15.95a1.07,1.07,0,0,0-.49-1.81,2.77,2.77,0,0,0-2.73.73c-4.68,4.47-4.8,11.32-4.81,17.35,0,.94,1,1.27,1.78,1.21s2.13-.6,2.13-1.53Z" transform="translate(-10.45 -23.14)"/><path class="cls-1" d="M577.89,157.59c-.33-.55-.66-1.09-.95-1.66a3,3,0,0,1-.44-1.25v.26a.42.42,0,0,1,0-.22l-.14.26.05-.07-.25.26,0,0-.35.24a.05.05,0,0,1,0,0,1.52,1.52,0,0,0,.74-.78.55.55,0,0,0-.38-.64,2.45,2.45,0,0,0-1.26-.1,4.47,4.47,0,0,0-1.47.49c-.4.22-.91.64-.93,1.14a2.1,2.1,0,0,0,.18,1,17.54,17.54,0,0,0,1.19,2.17.44.44,0,0,0,.26.3.83.83,0,0,0,.48.18,3.14,3.14,0,0,0,1.43-.1,3.09,3.09,0,0,0,1.3-.63l.25-.26a.62.62,0,0,0,.15-.52Z" transform="translate(-10.45 -23.14)"/><path class="cls-1" d="M578.33,157.6l-.89-.89a.9.9,0,0,0-.45-.29,1.45,1.45,0,0,0-.62-.15,2.36,2.36,0,0,0-.75.06,2.63,2.63,0,0,0-.77.23l-.43.24a1.82,1.82,0,0,0-.58.59l-.13.32a.77.77,0,0,0,.16.6l.9.89a.92.92,0,0,0,.44.29,1.53,1.53,0,0,0,.62.15,2.42,2.42,0,0,0,.76-.06,2.57,2.57,0,0,0,.76-.23l.43-.24a1.85,1.85,0,0,0,.59-.59l.12-.32a.7.7,0,0,0-.16-.6Z" transform="translate(-10.45 -23.14)"/><path class="cls-1" d="M577.36,155a5.45,5.45,0,0,0,2.73-.73c.57-.36.59-.71-.19-.71a5.45,5.45,0,0,0-2.73.73c-.58.36-.59.71.19.71Z" transform="translate(-10.45 -23.14)"/><path class="cls-1" d="M580,154.91a12.81,12.81,0,0,0-2.39-6,13.65,13.65,0,0,0-4.86-4.48,3.58,3.58,0,0,0-2.48.25c-.16.06-1.73.75-1.16,1a13,13,0,0,1,4.73,4.36A12.65,12.65,0,0,1,576.1,156c0,.22.58.23.67.24a5.12,5.12,0,0,0,1.41-.21,5.28,5.28,0,0,0,1.33-.53c.18-.11.48-.28.46-.54Z" transform="translate(-10.45 -23.14)"/><path class="cls-1" d="M547.16,31.16c3.43,1.2,6.85,1,9.06-2.15a12.19,12.19,0,0,1,2.31-2.89c1.56-1.19,4,.11,5.47.81a40,40,0,0,0,5.71,2.14c1.79.49,3.58,1,5.34,1.56,3.48,1.17,7.13,2.86,9.07,6.15,2.61,4.41,1.53,10.3.89,15.09-.24,1.76,3.68,1.15,3.89-.38.62-4.65,1.43-9.77-.24-14.29-1.4-3.8-4.68-6.22-8.29-7.77a47.07,47.07,0,0,0-5.89-2A52.14,52.14,0,0,1,569,25.75c-2.13-.89-4.16-2.06-6.46-2.47a8.39,8.39,0,0,0-6.69,1.55,19.32,19.32,0,0,0-3.24,3.91,5.63,5.63,0,0,1-.5.58c-.27.27-.23,0,0,.05a6.06,6.06,0,0,1-.78,0,10.34,10.34,0,0,1-1.88-.54c-1.44-.5-4.53,1.58-2.3,2.36Z" transform="translate(-10.45 -23.14)"/><path class="cls-1" d="M584.72,51.6c-1.23,12.4-3.14,24.72-5.27,37-1.06,6.11-2.17,12.21-3.29,18.31s-2.07,12.15-3.3,18.18c-1.42,6.93-3,13.82-3.87,20.85-.14,1.09,3.7.37,3.82-.64.77-6.28,2.13-12.47,3.42-18.66s2.29-12.3,3.41-18.45c2.24-12.28,4.5-24.55,6.34-36.9,1-6.89,1.92-13.79,2.61-20.72.06-.65-3.74-.22-3.87,1Z" transform="translate(-10.45 -23.14)"/><line class="cls-2" x1="559.27" y1="131.1" x2="553.02" y2="158.75"/><path class="cls-1" d="M528.86,167.91l2.61-13.53,6.16-31.88,7.33-38,6-31,1.76-9.11.43-2.22a3.26,3.26,0,0,0,.09-.45c0-.1,0-.05,0-.23-.06-1.38-.94-3-1.38-4.34a53.3,53.3,0,0,1-2.19-7.74c-.32-1.75-4.19-.78-3.87,1a56.67,56.67,0,0,0,2.34,8.16c.22.63.43,1.26.64,1.89a13.92,13.92,0,0,1,.56,1.47s0,0,0,.08a6.44,6.44,0,0,1-.28,1.44l-1.49,7.74-5.71,29.53-7.26,37.58-6.43,33.31-2.13,11c-.34,1.73-.81,3.5-1,5.25,0,.08,0,.15,0,.23-.37,1.89,3.58,1.4,3.91-.31Z" transform="translate(-10.45 -23.14)"/><line class="cls-2" x1="554.66" y1="2.58" x2="533.63" y2="106.65"/><path class="cls-1" d="M552.43,131.25h-2.11l-.5,0c-.06,0-.39,0-.13,0s0,0-.06,0c-.35,0-.7-.07-1-.13l-.47-.1c-.2,0,.22.07,0,0l-.26-.08a5,5,0,0,1-.86-.36s-.26-.15-.15-.08-.15-.11-.14-.1l-.38-.3a5.36,5.36,0,0,1-.72-.79,1,1,0,0,0-.6-.24,3.86,3.86,0,0,0-3,1c-1.72,2.33-1.74,6.43,1.1,7.91a5.85,5.85,0,0,0,3.51.38,4.25,4.25,0,0,0,1.46-.48c.26-.15.67-.42.75-.74.21-.81-1.23-.74-1.63-.69-.18,0-.56,0,0,0-.11,0-.24,0-.35,0-.29,0,.43.06,0,0l-.31-.06c.38,0,.12,0,0,0s-.18-.08-.27-.12l-.13-.06q.22.14.06,0l-.17-.12a3.43,3.43,0,0,1-.77-.84c.14.21,0-.07-.05-.11s-.09-.18-.12-.27a3.35,3.35,0,0,1-.19-.53,5.29,5.29,0,0,1-.2-1.19c0-.1,0-.21,0-.31v-.16c0,.11,0,.11,0,0s0-.4.06-.6a6.06,6.06,0,0,1,.32-1.18c.08-.2.17-.38.26-.57-.15.29,0,0,.06-.08l.17-.25-3.58.75c2,2.71,5.8,2.5,8.82,2.49a3.35,3.35,0,0,0,2.56-1c.54-.72-.46-1-1-1Z" transform="translate(-10.45 -23.14)"/><line class="cls-2" x1="535.19" y1="114.29" x2="529.61" y2="144.93"/><path class="cls-1" d="M540.49,167.44a21.51,21.51,0,0,0-5.58-1.68,2.54,2.54,0,0,0-2.28.85,1.67,1.67,0,0,0-.33.76,1.17,1.17,0,0,0,.48,1,19.18,19.18,0,0,0,2.68,1.25c.78.28,1.59.51,2.39.74l1.74-2.86c-.37-.06-.73-.14-1.09-.23l.45.12a14.52,14.52,0,0,1-2.92-1.11,2.34,2.34,0,0,0-1.48,0,2.56,2.56,0,0,0-1.09.61,1.47,1.47,0,0,0-.49.92,1.14,1.14,0,0,0,.48,1,12.63,12.63,0,0,0,4.4,1.66,2.61,2.61,0,0,0,1.53-.25,2.07,2.07,0,0,0,1-1,1.21,1.21,0,0,0-.1-1.15,1.79,1.79,0,0,0-1.12-.61l-.88-.18.46.12a10.57,10.57,0,0,1-2.24-.89l.38.2-.45-.26-2.58,2.53a16,16,0,0,0,4.47,1.45,2.45,2.45,0,0,0,2.39-1,1.24,1.24,0,0,0,.19-1,1.34,1.34,0,0,0-.84-.85,22.55,22.55,0,0,1-4.42-1.63l.38.2-.26-.15-2.13,2.65a14.48,14.48,0,0,1,1.62.31l-.45-.11a24,24,0,0,1,3.51,1.24,2.41,2.41,0,0,0,1.48.05,2.39,2.39,0,0,0,1.25-.78,1.28,1.28,0,0,0,.3-1.15,1.42,1.42,0,0,0-.83-.85Z" transform="translate(-10.45 -23.14)"/><path class="cls-1" d="M538.49,167.29a2.89,2.89,0,0,0-.36.44l-.09.15a1.46,1.46,0,0,1-.17.3l.24-.3L538,168a1,1,0,0,0-.31.46.6.6,0,0,0-.05.46.58.58,0,0,0,.28.37.91.91,0,0,0,.49.24l.44.07a3.45,3.45,0,0,0,1-.12l.51-.17a2.87,2.87,0,0,0,.77-.51,2.17,2.17,0,0,0,.36-.44l.09-.15a1.14,1.14,0,0,1,.18-.3l-.25.3.07-.08a.94.94,0,0,0,.31-.45.59.59,0,0,0,0-.47.58.58,0,0,0-.28-.37.91.91,0,0,0-.49-.24l-.44-.07a3.45,3.45,0,0,0-1,.12l-.51.17a3,3,0,0,0-.77.51Z" transform="translate(-10.45 -23.14)"/><polyline class="cls-2" points="570.37 8.26 544.14 142.99 532.4 145.89 527.38 176.66 516.46 173.76 522.03 144.56"/><line class="cls-2" x1="531.42" y1="151.88" x2="549.23" y2="161.72"/><line class="cls-2" x1="530.77" y1="155.9" x2="547.23" y2="164.69"/><line class="cls-2" x1="530.77" y1="160.3" x2="547.23" y2="169.97"/><line class="cls-2" x1="529.39" y1="164.69" x2="545.89" y2="174.85"/><line class="cls-2" x1="528.65" y1="168.91" x2="545.89" y2="179.11"/><path class="cls-1" d="M537.64,196.76l.25.17-.26-.2a2.8,2.8,0,0,1,.74.83l-.15-.26a2.12,2.12,0,0,1,.27,1V198a2,2,0,0,1-.17.88l.13-.3a2.44,2.44,0,0,1-.35.55l.25-.29a3.35,3.35,0,0,1-.43.41l.35-.27a3.28,3.28,0,0,1-.31.2l3.15.41a5.84,5.84,0,0,1,.32-2.27l-.13.31a2.75,2.75,0,0,1,.35-.63.69.69,0,0,0,0-.86,1.35,1.35,0,0,0-.83-.35,3.33,3.33,0,0,0-2.52.76c-.33.34-.55.74-.84,1.1l.24-.29a.27.27,0,0,1-.07.08l3.5.15a3.64,3.64,0,0,0-.05-1c-.16-.63-.8-.78-1.37-.84a3.3,3.3,0,0,0-1.52.29,2.29,2.29,0,0,0-1,.79.7.7,0,0,0,0,.85,1.65,1.65,0,0,0,1.06.39h0l-.43-.06h0l-.36-.13,0,0-.27-.19,0,0-.14-.26a1.35,1.35,0,0,1,.08.6v.21a.55.55,0,0,0,.28.35,1.59,1.59,0,0,0,.92.29,4,4,0,0,0,1-.12,2.93,2.93,0,0,0,1.28-.67,12.93,12.93,0,0,0,.84-1.11l-.24.3a.27.27,0,0,1,.07-.08l-3.37-.45a5.2,5.2,0,0,0-.8,3.2.73.73,0,0,0,.15.55,1.29,1.29,0,0,0,.83.36,3.45,3.45,0,0,0,2.17-.5,4.44,4.44,0,0,0,1.5-1.39,2.86,2.86,0,0,0,.48-1.39,3,3,0,0,0-.07-.85A2.78,2.78,0,0,0,542,196a3.71,3.71,0,0,0-1.26-1.2,2.24,2.24,0,0,0-1.28-.17,3.45,3.45,0,0,0-1.46.51c-.29.19-.68.48-.72.86a.74.74,0,0,0,.41.75Z" transform="translate(-10.45 -23.14)"/><line class="cls-2" x1="529.61" y1="175.84" x2="544.14" y2="183.57"/><path class="cls-1" d="M526.89,199a9.69,9.69,0,0,0,4.61,2.77,13.42,13.42,0,0,0,6.06.64c.7-.11,2-.45,2.2-1.28s-1.19-.86-1.66-.79c-.16,0-.33,0-.48.06.45-.11.26,0,.07,0h-.22l-.61,0c-.09,0-.39,0,0,0a1.54,1.54,0,0,1-.3,0q-.6-.08-1.2-.21l-.67-.16-.24-.07c.29.08-.11,0-.13,0a11.43,11.43,0,0,1-2.26-1l-.31-.18,0,0a5.85,5.85,0,0,1-.49-.38,6.3,6.3,0,0,1-.78-.77c-.81-1-4.52.35-3.59,1.49Z" transform="translate(-10.45 -23.14)"/><path class="cls-1" d="M529.5,196.49h0l-.24,0-.24,0h0a5.33,5.33,0,0,0-1,.28,3.9,3.9,0,0,0-.47.2c-.13.06-.26.15-.38.22l0,0a2.83,2.83,0,0,0-.28.23h0a1.44,1.44,0,0,0-.18.25s0,0,0,0a.07.07,0,0,0,0,0,1,1,0,0,0,0,.23.37.37,0,0,0,.24.23.9.9,0,0,0,.46.11,2.92,2.92,0,0,0,.66,0,3.91,3.91,0,0,0,.76-.14l.51-.17a3.52,3.52,0,0,0,.8-.4l.27-.22a.48.48,0,0,0,.17-.42v0l0,.21a.28.28,0,0,1,0-.13l-.15.22,0,0-.26.22,0,0-.37.22h0l-.44.19h0l-.51.17h0l-.52.11h0l-.48,0h0a3.67,3.67,0,0,0,.74-.11,4.22,4.22,0,0,0,.77-.22,2.37,2.37,0,0,0,.62-.3,1.6,1.6,0,0,0,.45-.32l.15-.22a.29.29,0,0,0-.1-.37l-.24-.11a2.42,2.42,0,0,0-.76-.06Z" transform="translate(-10.45 -23.14)"/><path class="cls-1" d="M527.48,198.86a3.16,3.16,0,0,0,2.56-1c.45-.76-.39-1.1-1-1.1a3.12,3.12,0,0,0-2.55,1c-.45.76.38,1.1,1,1.1Z" transform="translate(-10.45 -23.14)"/><path class="cls-1" d="M528.84,231.38a104.43,104.43,0,0,1,.79-17.5c.71-5.26,1.84-10.65.77-15.94-.31-1.49-4.18-.52-3.87,1,1.11,5.41-.33,10.8-.9,16.18a124.37,124.37,0,0,0-.66,17.26c0,1.41,3.92.59,3.87-1Z" transform="translate(-10.45 -23.14)"/><path class="cls-1" d="M524.75,231.69c-.7,3.37-3.22,7.17-1.54,10.63,1.33,2.72,5,4,7.6,5.15q3.21,1.4,6.41,2.83a23.55,23.55,0,0,1,6.42,3.78,5.47,5.47,0,0,1,1.62,6.59c-.35.84,1.26.93,1.68.88a2.59,2.59,0,0,0,2.19-1.34c2.12-5-2.34-8.55-6.36-10.64-2.15-1.11-4.41-2-6.62-3-2.62-1.18-5.63-2.16-7.87-4-3.63-3-.41-7.77.34-11.36.31-1.52-3.59-.92-3.87.46Z" transform="translate(-10.45 -23.14)"/><path class="cls-1" d="M545.26,260.51c.42,2.85,1,5.67,1.29,8.54a22.25,22.25,0,0,1,0,4.24,13.9,13.9,0,0,1-.33,1.93,6.59,6.59,0,0,1-.39,1.16c-.11.23-.44.58-.47.8l-.1.08a1.1,1.1,0,0,1,.75-.21c1.14-.15.41,0,.3-.14s-.63-.48-.84-.71a8.11,8.11,0,0,1-1.5-2.9c-1-3-.64-6.17-1.06-9.29-.62-4.57-3.84-8.78-7.25-11.73s-8-4.9-12.14-2.3c-3.87,2.41-5,7.34-6.71,11.26l3.6-.69c-1-1-1.35-2-.59-3.23a18.7,18.7,0,0,0,1.91-3.22,14.77,14.77,0,0,0,.43-7.8c-.66-2.92-3.2-4-5.22-5.88-2.59-2.35-3.67-6.57-4-9.93-.13-1.4-4-.54-3.87,1,.3,3.39,1.44,7.59,3.89,10.11,2,2,4.78,3,5.35,6,.45,2.36.38,5.53-.9,7.64a14.76,14.76,0,0,0-1.83,3.11,3.73,3.73,0,0,0,1.22,3.74c.78.83,3.14.37,3.6-.69.77-1.8,1.4-3.67,2.21-5.45.73-1.57,1.7-3.81,3.32-4.68,1.15-.61,3.11.45,4.24,1.16a21.75,21.75,0,0,1,5.18,4.86,17,17,0,0,1,3.31,6c.86,3.16.3,6.49,1,9.68.47,2,1.35,4.41,3.16,5.64a4.57,4.57,0,0,0,5.69-.78c2.06-2.14,2-5.83,1.9-8.59-.17-3.3-.9-6.53-1.38-9.79-.21-1.44-4.09-.52-3.86,1Z" transform="translate(-10.45 -23.14)"/><path class="cls-1" d="M504.58,231.7c1.71,1.4,4.11,1.33,6.17,1a4.51,4.51,0,0,0,1.47-.47c.21-.11.71-.39.77-.67.17-.75-1.23-.59-1.59-.54-.17,0-.82.08-.08,0l-.43,0-.5,0c-.29,0,.43,0,.13,0h-.25c-.15,0-.31,0-.46-.06s-.33-.08.05,0l-.24-.06a4.15,4.15,0,0,1-.91-.34l.24.13a4.6,4.6,0,0,1-.75-.49,1.59,1.59,0,0,0-1-.2,4.58,4.58,0,0,0-1.51.32c-.3.12-1.71.77-1.11,1.26Z" transform="translate(-10.45 -23.14)"/><path class="cls-1" d="M506.75,231.06c5.75-2.22,8.89-8.64,9.46-14.48A45.21,45.21,0,0,1,517,210a8.26,8.26,0,0,1,1.25-3,1.68,1.68,0,0,1,1.7-.89c.75,0,2-.56,2.17-1.42s-1.09-1-1.72-1c-6.06.15-7.49,6.16-7.93,11.07-.47,5.25-1.78,12.25-7.37,14.4-.63.25-1.5,1-1,1.75s1.92.4,2.59.14Z" transform="translate(-10.45 -23.14)"/><path class="cls-1" d="M528.17,167.71a15.74,15.74,0,0,0-1.63-.71c-.45-.17-.89-.34-1.32-.54l.37.18-.09,0a1.42,1.42,0,0,0-.6-.23,1.88,1.88,0,0,0-.71-.05,3,3,0,0,0-1.24.4,1.8,1.8,0,0,0-.79.78,1,1,0,0,0,.07,1,5.43,5.43,0,0,0,.82.84,3.65,3.65,0,0,0,.65.46,5.94,5.94,0,0,0,1.06.48,8.68,8.68,0,0,0,1.24.32,2.15,2.15,0,0,0,.76,0,2.29,2.29,0,0,0,.77-.23,1.74,1.74,0,0,0,.59-.41,1.35,1.35,0,0,0,.4-.49,1,1,0,0,0-.07-1.05l-.28-.26a1.81,1.81,0,0,0-.81-.27l-.13,0,.45.1a5.28,5.28,0,0,1-1.16-.39l.37.18a3.76,3.76,0,0,1-.91-.62l.28.26a3.43,3.43,0,0,1-.48-.53l-3.27,1.94a16.91,16.91,0,0,0,1.64.71c.44.17.89.33,1.31.54l-.37-.18.1,0a1.3,1.3,0,0,0,.59.23,1.76,1.76,0,0,0,.72.06,2.35,2.35,0,0,0,.78-.19,1.93,1.93,0,0,0,.67-.34,1.59,1.59,0,0,0,.69-1,1,1,0,0,0-.47-.94Z" transform="translate(-10.45 -23.14)"/><path class="cls-1" d="M521.18,169.32c0,3.81-.18,7.62-.41,11.42a80.6,80.6,0,0,1-.83,9.56c-.49,2.63-1.2,5.21-1.7,7.84-.41,2.19-.85,4.67-.18,6.86.38,1.25,4.24.18,3.86-1-.67-2.2-.16-4.66.27-6.86.53-2.66,1.27-5.27,1.71-7.94a92,92,0,0,0,.76-9.67c.23-3.73.38-7.46.39-11.2,0-1.08-3.87-.39-3.87,1Z" transform="translate(-10.45 -23.14)"/><path class="cls-1" d="M521.48,167.65c-.07.14-.13.29-.19.43a1.73,1.73,0,0,1-.14.31l.23-.37a1,1,0,0,1-.12.16,1.1,1.1,0,0,0-.28.56.89.89,0,0,0,0,.58.88.88,0,0,0,.31.5,1.17,1.17,0,0,0,.52.35l.45.11a2.56,2.56,0,0,0,1-.07l.5-.19a2.26,2.26,0,0,0,.75-.59,2.55,2.55,0,0,0,.36-.52l.09-.2c.07-.18.14-.36.22-.53a.87.87,0,0,0,.09-.59.81.81,0,0,0-.18-.55,1,1,0,0,0-.47-.38,1.36,1.36,0,0,0-.64-.22l-.5,0a2.82,2.82,0,0,0-1,.28L522,167a1.86,1.86,0,0,0-.56.69Z" transform="translate(-10.45 -23.14)"/><path class="cls-1" d="M532.85,240.08c0-3-.41-6.05-.68-9.08-.22-2.57-.46-5,.56-7.45,1.51-3.56,4.77-7.37,2.57-11.34-.51-.92-4.19.27-3.86,1,1.17,2.71,3.66,4.54,4.83,7.23a6.19,6.19,0,0,0,1.35,2.26,4.26,4.26,0,0,0,3.25.67A8.92,8.92,0,0,0,547,220a2.26,2.26,0,0,1,.31-.23l-.75.25c0-.08.72.16.71.16a9.53,9.53,0,0,1,1.78,1c1.09.73,2.1,1.57,3.23,2.24a3.24,3.24,0,0,0,2.49-.19c.2-.08,1.75-.78,1.14-1.15-2-1.19-3.86-3.27-6.25-3.67a8,8,0,0,0-6.85,2.5c-.24.25-.77.61-.93.92s.18-.15.23,0-.42-.12-.5-.16c-.86-.44-1.17-1.52-1.53-2.33-1.17-2.65-3.63-4.45-4.79-7.12l-3.86,1c2.25,4.06-1.4,7.87-2.77,11.56-.83,2.25-.58,4.64-.38,7,.26,3.1.67,6.19.7,9.31,0,.7,3.87.12,3.86-1Z" transform="translate(-10.45 -23.14)"/><path class="cls-1" d="M528.76,240.67c4,6,12.29,5.8,17.51,10.18.56.48,1.9,0,2.49-.19.28-.1,1.69-.69,1.14-1.15-2.58-2.16-5.94-3.19-9-4.4s-6.38-2.63-8.24-5.48c-.65-1-4.22.51-3.87,1Z" transform="translate(-10.45 -23.14)"/><path class="cls-1" d="M548.92,253.35c2.25-6.87,6.38-13,8-20.07.41-1.72-3.53-1.21-3.89.36-1.64,7.06-5.78,13.22-8,20.07-.29.9,1.18,1.16,1.75,1.11a2.38,2.38,0,0,0,2.15-1.47Z" transform="translate(-10.45 -23.14)"/><path class="cls-1" d="M559.69,221.72a6.52,6.52,0,0,0-4.2.39,1.65,1.65,0,0,0-1.09,1.61c0-.56,0-.08,0,.08s0,.36-.08.54c-.07.42-.17.82-.27,1.23-.26,1-.55,2-.8,3a15.84,15.84,0,0,0-.54,2.81,3.18,3.18,0,0,0,.52,2.35c1.12,1.24,3.09.77,4.41.16.67-.32,1.5-1.17.93-1.93s-1.88-.6-2.61-.26l-.33.14s.48-.14.31-.11a.57.57,0,0,1-.14,0l-.1,0c-.25.09.36-.06.34-.06-.34.07,0,0,.18,0-.28,0,.45.14.24.06s.31.17.17.09.14.17.13.13-.12-.13-.11-.14-.15-.28,0,.06,0,.1,0,0,0-.11-.05-.17a1.29,1.29,0,0,1,0-.19s0-.08,0-.12c0-.24,0,.14,0,.15s0-1,.06-1.08a48,48,0,0,1,1.3-5.39,7.69,7.69,0,0,0,.32-2.52l-1.09,1.61c.34-.16-.5.11-.06,0,.07,0,.46-.07.17-.05s.21,0,.21,0c-.36,0,.2.05-.06,0a2.78,2.78,0,0,0,2.73-.73c.5-.62.45-1.6-.48-1.8Z" transform="translate(-10.45 -23.14)"/><path class="cls-1" d="M551.8,223.79c.22,0,.44.1.66.16l-.35-.1a5.12,5.12,0,0,1,1.38.65l-.25-.18a5.2,5.2,0,0,1,.63.53,1.59,1.59,0,0,0,1,.32,3.75,3.75,0,0,0,1.51-.31l.44-.21a2.16,2.16,0,0,0,.6-.53.58.58,0,0,0,0-.77,6.45,6.45,0,0,0-3.28-1.62,3.49,3.49,0,0,0-1.44.09,3.27,3.27,0,0,0-.72.28,2.12,2.12,0,0,0-.57.36c-.2.2-.51.51-.39.82a.9.9,0,0,0,.74.51Z" transform="translate(-10.45 -23.14)"/><line class="cls-2" x1="528.5" y1="178.31" x2="544.18" y2="187.36"/><line class="cls-2" x1="518.45" y1="178.31" x2="544.55" y2="194.38"/><path class="cls-1" d="M543.44,222.41c1.19.54,2.41,1,3.6,1.51.58.26,1.16.53,1.72.85.29.16.58.33.86.52s.29.19.43.29l.21.16c.12.09.14.1,0,0a2.53,2.53,0,0,0,2.58.11,2.18,2.18,0,0,0,1-.8c.13-.26.25-.67,0-.89a17,17,0,0,0-3.69-2.21c-1.22-.54-2.48-1-3.7-1.56a3,3,0,0,0-2.75.32c-.29.21-.68.5-.72.89a.74.74,0,0,0,.42.77Z" transform="translate(-10.45 -23.14)"/><path class="cls-1" d="M552.53,229.43a14.85,14.85,0,0,1-2.23-.9c-.23-.11.22.12,0,0l-.3-.17-.48-.29c-.37-.21-.72-.44-1.07-.68-1.34-.88-2.63-1.85-4-2.66a2.48,2.48,0,0,0-2.78.21c-.58.49-1.06,1.58-.18,2.09,2.93,1.73,5.52,4.14,8.85,5.11a2.56,2.56,0,0,0,2.73-.73,1.22,1.22,0,0,0-.53-2Z" transform="translate(-10.45 -23.14)"/><path class="cls-1" d="M539.4,230.78c3.41,1.08,6.17,3.37,8.67,5.86.57.58,1.9.24,2.53,0,.4-.17,1.66-.82,1.07-1.41-2.62-2.61-5.59-5-9.17-6.17a3.48,3.48,0,0,0-2.72.4c-.4.24-1.28,1.07-.38,1.36Z" transform="translate(-10.45 -23.14)"/><path class="cls-1" d="M537.82,235.1a12.68,12.68,0,0,0,4.13,3.46c.75.44,1.53.85,2.29,1.28a21.09,21.09,0,0,1,2,1.28,2.65,2.65,0,0,0,2.55,0,2.35,2.35,0,0,0,1-.74c.14-.21.26-.58,0-.78a48.08,48.08,0,0,0-4.63-2.78,11.31,11.31,0,0,1-3.84-3.24c-.19-.26-.78-.31-1-.32a3.7,3.7,0,0,0-1.51.3c-.55.25-1.54.82-1,1.52Z" transform="translate(-10.45 -23.14)"/><path class="cls-1" d="M536,239.8c2.51,2.74,6.08,4.46,9.4,6a3,3,0,0,0,2.74-.34c.5-.34,1.19-1.18.32-1.58a50.82,50.82,0,0,1-4.76-2.44,17.06,17.06,0,0,1-4.12-3.16c-.94-1-4.63.4-3.58,1.53Z" transform="translate(-10.45 -23.14)"/><path class="cls-1" d="M548.7,177.12c.15-.64.29-1.28.47-1.91,0-.13.07-.25.11-.37-.08.26,0-.09.06-.17a6.21,6.21,0,0,1,.31-.75l.18-.34c.1-.16.16-.24,0,0,.07-.08.5-.49.49-.57,0,.09-.29.23-.09.08l.13-.1c.08-.06.28-.14.33-.22s-.35.17-.17.1a.8.8,0,0,0,.16-.08l.17-.08c.32-.14.06,0-.11,0a1.79,1.79,0,0,1-1,0l.14,0s-.27-.17-.21-.09a2.12,2.12,0,0,0,.4.31,2.89,2.89,0,0,0,1.51.65c1.66.17,3.77-1.08,3.95-2.86a11.61,11.61,0,0,0-.61-3.82c-.43-1.71-4.3-.69-3.86,1,.12.47.25.94.35,1.42a8.28,8.28,0,0,1,.16.84c0,.15,0,.3.06.45s0,0,0,0v.23c0,.13,0,.25,0,.37s0,0,.08-.1,0,0,0,0a.89.89,0,0,1-.19.2s.27-.24.13-.13l.09,0a.94.94,0,0,1,.32-.15,1.92,1.92,0,0,1,1.25-.08c.13,0,.34.21.14.06l-.39-.31c-2.34-1.88-5.77.45-6.93,2.66a16.71,16.71,0,0,0-1.26,4.05c-.21.92,1.11,1.27,1.77,1.2a2.32,2.32,0,0,0,2.14-1.52Z" transform="translate(-10.45 -23.14)"/><path class="cls-1" d="M231.86,237.85c-8.74-25.55-14.48-52.18-18.11-78.92q-1.47-10.91-2.4-21.86c-.09-1-4-.27-3.86,1a443.35,443.35,0,0,0,14,79.38c2,7.2,4.12,14.34,6.54,21.4.4,1.17,4.24.06,3.86-1Z" transform="translate(-10.45 -23.14)"/><path class="cls-1" d="M365.63,420.67c-9-20.11-15.54-42-29.5-59.43a71.67,71.67,0,0,0-13.42-13c-.63-.46-1.86-.09-2.51.16-.25.1-1.72.76-1.12,1.2,18.16,13.36,27.14,34.63,35.43,54.84,2.36,5.77,4.71,11.55,7.26,17.24.46,1,4.22-.24,3.86-1Z" transform="translate(-10.45 -23.14)"/><path class="cls-1" d="M546,254.69a21.84,21.84,0,0,1,2.82,3.88l-.17-.34a8.3,8.3,0,0,1,.45,1.17c.27.91,1.51,1.09,2.3.85a2.44,2.44,0,0,0,1.26-.77,1.28,1.28,0,0,0,.3-1.12,10.15,10.15,0,0,0-1.55-3.06c-.59-.81-1.26-1.56-1.88-2.34a2.2,2.2,0,0,0-2.63-.32c-.66.36-1.53,1.26-.9,2.05Z" transform="translate(-10.45 -23.14)"/><path class="cls-1" d="M553.69,259.68a7.86,7.86,0,0,1-.85-1l.12.17a3.09,3.09,0,0,1-.64-1.7c0-.25-.57-.33-.7-.34a4,4,0,0,0-1.42.16,4.14,4.14,0,0,0-1.31.57l-.26.22a.48.48,0,0,0-.17.43,2.62,2.62,0,0,0,.42,1.35,7.37,7.37,0,0,0,1.18,1.49.79.79,0,0,0,.41.15,1.94,1.94,0,0,0,.59,0,4.59,4.59,0,0,0,1.51-.33l.44-.19a2.47,2.47,0,0,0,.63-.44l.15-.22a.3.3,0,0,0-.1-.37Z" transform="translate(-10.45 -23.14)"/><path class="cls-1" d="M535,166.57a7.15,7.15,0,0,0-1.78.25,6.7,6.7,0,0,0-1.62.65,3.38,3.38,0,0,0-.79.62.29.29,0,0,0-.17.26q-.06.14.09.21a.86.86,0,0,0,.39.09,2.81,2.81,0,0,0,.58,0,6.5,6.5,0,0,0,1.51-.35l.44-.18a2.58,2.58,0,0,0,.64-.38,3.34,3.34,0,0,1,.4-.35l-.28.19.18-.1-.37.19.1,0-.45.18.1,0-.51.15.1,0L533,168l.11,0-.48.07.14,0-.41,0h.08a5.23,5.23,0,0,0,1.41-.21,4.79,4.79,0,0,0,.73-.24,4.53,4.53,0,0,0,.59-.28l.27-.19a.4.4,0,0,0,.19-.35l-.1-.12a1.12,1.12,0,0,0-.57-.11Z" transform="translate(-10.45 -23.14)"/><path class="cls-1" d="M540.59,200.56c-.2-.1-.41-.2-.62-.28l-.18-.08.37.18-.15-.1.28.26,0,0a1.05,1.05,0,0,0-.46-.35,1.43,1.43,0,0,0-.63-.18,2.15,2.15,0,0,0-.76,0,2.36,2.36,0,0,0-.77.23l-.42.25a1.69,1.69,0,0,0-.57.65l-.12.36a.89.89,0,0,0,.19.68l.29.27,0,0,.06,0,.06,0,.43.2.34.14-.37-.18,0,0a1.29,1.29,0,0,0,.59.22,1.75,1.75,0,0,0,.72.06,2.35,2.35,0,0,0,.78-.19,1.93,1.93,0,0,0,.67-.34l.34-.31a1.34,1.34,0,0,0,.35-.69l0-.36a1,1,0,0,0-.43-.58Z" transform="translate(-10.45 -23.14)"/><path class="cls-1" d="M593,187.19l-.33-.09a6,6,0,0,0-.61-.1,8.47,8.47,0,0,0-1,0,3.67,3.67,0,0,0-.74.11,4.22,4.22,0,0,0-.77.22,2.37,2.37,0,0,0-.62.3,1.6,1.6,0,0,0-.45.32l-.15.22a.27.27,0,0,0,.1.36l.24.11a2,2,0,0,0,.76.06h-.25a3.14,3.14,0,0,1,.61,0l-.34-.06a3.06,3.06,0,0,1,.41.1,1.69,1.69,0,0,0,.55.06,3.21,3.21,0,0,0,.69-.05,5.09,5.09,0,0,0,.77-.19,3.79,3.79,0,0,0,.7-.28l.36-.21a1.09,1.09,0,0,0,.41-.44l0-.2a.45.45,0,0,0-.35-.27Z" transform="translate(-10.45 -23.14)"/><path class="cls-1" d="M628,203.15c-.57-.12-1.15-.14-1.72-.25l.35.06-.22,0a3,3,0,0,0-1.24,0,4.23,4.23,0,0,0-.78.19,3.44,3.44,0,0,0-.69.28l-.36.22a1.13,1.13,0,0,0-.41.46l0,.21a.5.5,0,0,0,.37.3c.75.19,1.52.22,2.27.37a2.43,2.43,0,0,0,.66,0,3.27,3.27,0,0,0,.76-.13,3,3,0,0,0,.73-.27,2.49,2.49,0,0,0,.58-.31l.26-.23a.49.49,0,0,0,.17-.45l-.12-.17a1.12,1.12,0,0,0-.59-.19Z" transform="translate(-10.45 -23.14)"/><path class="cls-1" d="M567.93,181.83a1.52,1.52,0,0,0-.06.42,2.76,2.76,0,0,0,0,.64,1.75,1.75,0,0,0,.19.42,1.64,1.64,0,0,0,.26.37.8.8,0,0,0,.44.24,1.57,1.57,0,0,0,.61.11,2.74,2.74,0,0,0,.75-.08,2.88,2.88,0,0,0,.76-.22l.44-.22a2.2,2.2,0,0,0,.6-.54l.13-.28a.55.55,0,0,0-.14-.52,1,1,0,0,1-.19-.26l.13.24a1.27,1.27,0,0,1-.16-.64v.28a2.12,2.12,0,0,1,.06-.44.41.41,0,0,0-.07-.4.56.56,0,0,0-.32-.3,1.49,1.49,0,0,0-.57-.14,2.12,2.12,0,0,0-.71,0l-.52.1a3.55,3.55,0,0,0-.94.4l-.35.26a1.15,1.15,0,0,0-.38.56Z" transform="translate(-10.45 -23.14)"/><path class="cls-1" d="M399.3,163.61a3.53,3.53,0,0,0-2.11-2.58,2,2,0,0,0-1-.09,6,6,0,0,0-1.5.35l-.45.17a3.18,3.18,0,0,0-.64.38c-.1.11-.34.37-.08.47a3.41,3.41,0,0,1,1.26.89l-.11-.12a3.39,3.39,0,0,1,.75,1.56.28.28,0,0,0,.22.17.94.94,0,0,0,.44.06,5.11,5.11,0,0,0,1.41-.2,4.93,4.93,0,0,0,1.33-.53c.16-.11.51-.29.46-.53Z" transform="translate(-10.45 -23.14)"/><path class="cls-1" d="M359.66,261.59c1.5.86,2.94,1.81,4.49,2.59a2.52,2.52,0,0,0,1.25,0,4.39,4.39,0,0,0,1.46-.47c.26-.15.7-.38.77-.7s-.1-.42-.36-.55l-.63-.33.25.13c-1.23-.67-2.4-1.43-3.61-2.12a1.86,1.86,0,0,0-1-.23,4.79,4.79,0,0,0-1.51.32,2.5,2.5,0,0,0-1.06.67c-.12.17-.3.5,0,.65Z" transform="translate(-10.45 -23.14)"/><path class="cls-1" d="M349.28,256.94c0,.77,0,1.53,0,2.29l0-.23a16.94,16.94,0,0,1-.19,1.73.48.48,0,0,0,.36.56,2.56,2.56,0,0,0,1.26.06,4.4,4.4,0,0,0,1.46-.48l.36-.23a1.12,1.12,0,0,0,.4-.49,26.09,26.09,0,0,0,.24-4.24c0-.27-.57-.39-.72-.41a4.22,4.22,0,0,0-2.73.73l-.26.24a.55.55,0,0,0-.16.47Z" transform="translate(-10.45 -23.14)"/><path class="cls-1" d="M482,318.34a.65.65,0,0,0-.12-.31,2.35,2.35,0,0,0-.19-.25l0,0a.76.76,0,0,0-.41-.13,1.62,1.62,0,0,0-.58,0,3.57,3.57,0,0,0-.74.11,4,4,0,0,0-.77.22l-.44.19a2.29,2.29,0,0,0-.64.42l-.15.2a.27.27,0,0,0,.09.35l.08.09L478,319a.64.64,0,0,1,.14.35.34.34,0,0,0,.24.21,1,1,0,0,0,.45.1,3.65,3.65,0,0,0,.66,0,3.93,3.93,0,0,0,.76-.15l.51-.16a4,4,0,0,0,.8-.39l.27-.22a.43.43,0,0,0,.18-.39Z" transform="translate(-10.45 -23.14)"/><path class="cls-1" d="M482,317.67a3.14,3.14,0,0,0-.34-.55l-.23-.25a2.87,2.87,0,0,1-.45-.53l.15.26,0-.05a.51.51,0,0,0-.27-.35.89.89,0,0,0-.49-.23,1.73,1.73,0,0,0-.68-.05,2.25,2.25,0,0,0-.77.11l-.5.17a2.67,2.67,0,0,0-.78.5l-.25.29a.79.79,0,0,0-.12.6,3.24,3.24,0,0,0,.33.54,1.88,1.88,0,0,0,.24.25,2.54,2.54,0,0,1,.44.54l-.14-.26,0,0a.57.57,0,0,0,.28.36.93.93,0,0,0,.49.23,2.17,2.17,0,0,0,.67,0,2.81,2.81,0,0,0,.77-.11l.51-.18a2.64,2.64,0,0,0,.78-.49l.24-.3a.74.74,0,0,0,.13-.59Z" transform="translate(-10.45 -23.14)"/><path class="cls-1" d="M304,52.9A13.33,13.33,0,0,0,297.52,49a3.34,3.34,0,0,0-1.22.06,6,6,0,0,0-1.48.46c-.3.14-1.34.74-.49.92a5.8,5.8,0,0,1,.82.21l.06,0,.19.07.44.18a13.53,13.53,0,0,1,1.59.86,17.94,17.94,0,0,1,2.91,2.37c.17.17.8.1,1,.08a6,6,0,0,0,1.5-.34c.28-.1,1.62-.57,1.17-1Z" transform="translate(-10.45 -23.14)"/><path class="cls-1" d="M158.51,224.25a5.26,5.26,0,0,1-.42-1.23c-.09-.4-.15-.82-.25-1.22a1.17,1.17,0,0,0-.8-.73,2,2,0,0,0-.69-.09,2.24,2.24,0,0,0-.77.1,2.51,2.51,0,0,0-1.27.73,1.15,1.15,0,0,0-.33,1c.1.41.16.82.25,1.23a4.9,4.9,0,0,0,.42,1.22.71.71,0,0,0,.29.44,1.08,1.08,0,0,0,.51.29,2,2,0,0,0,.69.09,2.5,2.5,0,0,0,.77-.09,2.58,2.58,0,0,0,1.27-.73l.23-.33a1,1,0,0,0,.1-.7Z" transform="translate(-10.45 -23.14)"/><path class="cls-1" d="M131.77,284.39c-.72.06-1.44.15-2.16.25l-.74.09-.49.07c-.12,0-.52.06,0,0-.53.06-1.06.13-1.59.17-.29,0-.58,0-.88.06l-.38,0h-.25a4.85,4.85,0,0,0-2.73.73c-.17.12-.51.34-.45.59s.51.29.69.29a30.34,30.34,0,0,0,3.81-.25l2.07-.26c.44-.06-.42.05,0,0l.51-.06.92-.09a5.94,5.94,0,0,0,1.5-.34,3.16,3.16,0,0,0,1.08-.59c.6-.63-.54-.71-.92-.67Z" transform="translate(-10.45 -23.14)"/><path class="cls-1" d="M130.59,284.07c-.16.07-.64.18,0,0l-.32.1c-.17,0-.66.07,0,0l-.34.05c-.26,0-.52.05-.79.07s.45,0,0,0h-.4c-1.09,0-2.17-.11-3.26-.11a3.49,3.49,0,0,0-1.52.29,2.22,2.22,0,0,0-1,.8.72.72,0,0,0,0,.87,1.53,1.53,0,0,0,1.06.41c1.2,0,2.4.12,3.6.11a11.85,11.85,0,0,0,4.6-.85,2.26,2.26,0,0,0,1-.8.75.75,0,0,0,0-.88c-.62-.65-1.86-.42-2.58-.11Z" transform="translate(-10.45 -23.14)"/><path class="cls-1" d="M15.74,507.48a17.89,17.89,0,0,1,.18-3l0,.16c0-.18.07-.36.11-.55a.16.16,0,0,0,0-.23.33.33,0,0,0-.29-.14,3.14,3.14,0,0,0-1.22.05,6.28,6.28,0,0,0-1.47.46l-.37.19a1.13,1.13,0,0,0-.43.38,15.51,15.51,0,0,0-.33,3.73c0,.22.6.24.67.24a5.16,5.16,0,0,0,1.41-.2,4.74,4.74,0,0,0,1.32-.53c.2-.13.46-.28.46-.54Z" transform="translate(-10.45 -23.14)"/><path class="cls-1" d="M414.19,637.6a77.7,77.7,0,0,0,13.3.52c4.63-.1,9.24.13,13.87.17a111.9,111.9,0,0,0,13.94-.8,88.45,88.45,0,0,0,11.33-1.8c3.65-.93,6.51-3.09,7.73-6.74.73-2.17-3.13-2.28-3.72-.53-.91,2.74-2.6,4-5.35,4.58a101.31,101.31,0,0,1-10.41,1.57,110.52,110.52,0,0,1-12.74.71c-4.24,0-8.47-.29-12.72-.2a81.15,81.15,0,0,1-13.94-.45,2.42,2.42,0,0,0-2.51,1.22c-.37.91.35,1.62,1.22,1.75Z" transform="translate(-10.45 -23.14)"/><path class="cls-1" d="M470.33,630.35a2.19,2.19,0,0,0-.37.48,2.87,2.87,0,0,0-.21.51c-.06.15-.1.31-.16.46l.12-.31a1.24,1.24,0,0,1-.16.3l.24-.31-.05.06a1,1,0,0,0-.31.46.64.64,0,0,0-.05.47.61.61,0,0,0,.28.38.89.89,0,0,0,.5.25l.44.07a3.14,3.14,0,0,0,1-.11l.5-.18a2.51,2.51,0,0,0,.78-.51,2.4,2.4,0,0,0,.37-.47,3.33,3.33,0,0,0,.21-.52c.06-.15.11-.31.17-.46l-.13.32a1.34,1.34,0,0,1,.17-.31l-.25.31.05-.06a.9.9,0,0,0,.31-.46.59.59,0,0,0,0-.47.58.58,0,0,0-.28-.38.92.92,0,0,0-.49-.25l-.44-.07a3.2,3.2,0,0,0-1,.11l-.5.18a2.51,2.51,0,0,0-.78.51Z" transform="translate(-10.45 -23.14)"/><path class="cls-1" d="M447.18,516.41l-.9,1.78a.81.81,0,0,0-.1.54.7.7,0,0,0,.18.51,1,1,0,0,0,.46.35,1.36,1.36,0,0,0,.63.18,2.75,2.75,0,0,0,1.52-.27,2.09,2.09,0,0,0,1-.9c.3-.59.59-1.19.89-1.78a.74.74,0,0,0,.1-.54.69.69,0,0,0-.17-.51,1,1,0,0,0-.46-.34,1.32,1.32,0,0,0-.63-.19,2.87,2.87,0,0,0-1.53.27,2.16,2.16,0,0,0-1,.9Z" transform="translate(-10.45 -23.14)"/><path class="cls-1" d="M561.66,285.44a16.84,16.84,0,0,0-2.64,2,.41.41,0,0,0-.15.35.29.29,0,0,0,.12.31.88.88,0,0,0,.41.17,2,2,0,0,0,.6.06,4,4,0,0,0,2.57-1c0-.06.11-.11.16-.16l-.26.24a18.62,18.62,0,0,1,2.22-1.63c.18-.12.48-.44.41-.7s-.49-.38-.71-.41a4.26,4.26,0,0,0-2.73.73Z" transform="translate(-10.45 -23.14)"/><path class="cls-1" d="M619.8,320.93a.33.33,0,0,0,.08.22,1.24,1.24,0,0,0,.18.21l.07.08-.11-.14a.38.38,0,0,1,.08.23.29.29,0,0,0,.23.18.86.86,0,0,0,.45.08,2.81,2.81,0,0,0,.65,0,4.87,4.87,0,0,0,.76-.15l.51-.16a3.73,3.73,0,0,0,.81-.38l.27-.2a.4.4,0,0,0,.18-.37.32.32,0,0,0-.08-.22,1.73,1.73,0,0,0-.17-.21l-.08-.08.11.14a.36.36,0,0,1-.07-.22.31.31,0,0,0-.23-.19,1,1,0,0,0-.45-.08,2.93,2.93,0,0,0-.66,0,5.1,5.1,0,0,0-.76.15l-.5.16a4.71,4.71,0,0,0-.82.38l-.27.2a.43.43,0,0,0-.18.37Z" transform="translate(-10.45 -23.14)"/><path class="cls-1" d="M624.56,320.19h0v.26a1.17,1.17,0,0,1,.16-.44c0-.08.07-.15.1-.22a1.54,1.54,0,0,0,0-.48.44.44,0,0,0-.26-.3.79.79,0,0,0-.47-.19,2.22,2.22,0,0,0-.68,0,2.46,2.46,0,0,0-.76.12l-.51.17a3.14,3.14,0,0,0-.79.46l-.25.27a.63.63,0,0,0-.14.53h0v-.26a1,1,0,0,1-.15.44l-.1.22a1.54,1.54,0,0,0,0,.48.51.51,0,0,0,.26.31.91.91,0,0,0,.48.18,2.53,2.53,0,0,0,.67,0,2.89,2.89,0,0,0,.77-.13l.5-.17a2.73,2.73,0,0,0,.79-.46l.26-.26a.66.66,0,0,0,.14-.54Z" transform="translate(-10.45 -23.14)"/><path class="cls-1" d="M508.1,230.49c-.19-.38-.45-.72-.66-1.09l.13.23-.14-.25a.45.45,0,0,0-.26-.31.92.92,0,0,0-.48-.19,2.51,2.51,0,0,0-.67,0,3.34,3.34,0,0,0-.77.12l-.5.17a3,3,0,0,0-.79.47l-.25.27a.61.61,0,0,0-.14.53c.19.39.44.73.66,1.09l-.13-.22.14.25a.48.48,0,0,0,.26.31.92.92,0,0,0,.48.19,2.15,2.15,0,0,0,.67,0,2.53,2.53,0,0,0,.77-.12l.5-.17a3,3,0,0,0,.79-.46L508,231a.63.63,0,0,0,.14-.54Z" transform="translate(-10.45 -23.14)"/><text x="-10.45" y="-23.14"/></svg>